<?xml version="1.0" encoding="UTF-8"?>
<svg width="100pt" height="100pt" version="1.1" viewBox="0 0 100 100" xmlns="http://www.w3.org/2000/svg">
 <path d="m18.129 21.492s-1.1289 0.23047-1.1289 0.23047l-0.92188 0.62891s-0.60938 0.91797-0.60938 0.91797l-0.22266 1.1055 0.003906 10.18h-12.773v5.7617h12.773v19.328h-12.773v5.7617h12.773v10.18l0.21484 1.0898s0.61719 0.93359 0.61719 0.93359l0.93359 0.63281 1.1133 0.22266h27.656c7.1367 0 13.984-2.8359 19.031-7.8828 4.7383-4.7383 7.5234-11.062 7.8477-17.723h24.918v-5.7578h-24.918c-0.68359-14.227-12.488-25.609-26.879-25.609zm2.8789 5.7617h24.773c11.719 0 21.152 9.4375 21.152 21.152v3.1445c0 5.6133-2.2266 10.988-6.1953 14.957s-9.3477 6.1953-14.957 6.1953l-24.773 0.003906z" fill="#fff" fill-rule="evenodd"/>
</svg>
