<?xml version="1.0" encoding="UTF-8"?>
<svg width="100pt" height="100pt" version="1.1" viewBox="0 0 100 100" xmlns="http://www.w3.org/2000/svg">
 <path d="m62.891 43.215c-3.7266 0-6.7891 3.0625-6.7891 6.7891 0 3.7266 3.0625 6.7891 6.7891 6.7891s6.7891-3.0625 6.7891-6.7891c0-3.7266-3.0625-6.7891-6.7891-6.7891zm0 3.9336c1.5977 0 2.8555 1.2578 2.8555 2.8555s-1.2578 2.8477-2.8555 2.8477-2.8477-1.25-2.8477-2.8477 1.25-2.8555 2.8477-2.8555z" fill="#fff"/>
 <path d="m67.715 48.027c-0.52344 0-1.0234 0.21094-1.3945 0.58203-0.36719 0.37109-0.57422 0.87109-0.57422 1.3945 0.003906 1.0859 0.88281 1.9648 1.9688 1.9648h6.5586-0.003907c1.0859 0 1.9648-0.87891 1.9688-1.9648 0-0.52344-0.20703-1.0234-0.57422-1.3945-0.36719-0.37109-0.87109-0.58203-1.3945-0.58203z" fill="#fff"/>
 <path d="m25.727 40.859c-0.52344 0-1.0234 0.20703-1.3945 0.57422-0.37109 0.36719-0.58203 0.87109-0.58203 1.3945s0.20703 1.0273 0.57812 1.3984c0.37109 0.37109 0.875 0.57813 1.3984 0.57422h11.777c0.52344 0 1.0234-0.20703 1.3945-0.57812 0.36719-0.37109 0.57422-0.87109 0.57031-1.3945 0-1.0859-0.87891-1.9648-1.9648-1.9688z" fill="#fff"/>
 <path d="m36.574 34.758c-0.63672 0.34375-1.0352 1.0117-1.0352 1.7344v27.012c-0.003906 0.72656 0.39453 1.3945 1.0312 1.7383 0.64063 0.34375 1.4141 0.30859 2.0195-0.089844l20.562-13.512c0.55078-0.36328 0.88281-0.98047 0.88281-1.6406s-0.33203-1.2773-0.88281-1.6445l-20.562-13.512v0.003906c-0.60547-0.39844-1.3789-0.43359-2.0156-0.089844zm2.8945 5.375 15.023 9.8594-15.023 9.8711z" fill="#fff"/>
 <path d="m25.727 55.207c-0.52344-0.003906-1.0234 0.20312-1.3945 0.57031-0.37109 0.37109-0.58203 0.87109-0.58203 1.3945s0.21094 1.0234 0.58203 1.3945c0.37109 0.36719 0.87109 0.57422 1.3945 0.57031h11.777c1.0859 0 1.9648-0.87891 1.9648-1.9648s-0.87891-1.9648-1.9648-1.9648z" fill="#fff"/>
</svg>
