<?xml version="1.0" encoding="UTF-8"?>
<svg width="100pt" height="100pt" version="1.1" viewBox="0 0 100 100" xmlns="http://www.w3.org/2000/svg">
 <path d="m18.129 21.488-1.1094 0.22266-0.92578 0.62109c-0.003906 0-0.55469 0.82812-0.59766 0.89062h-0.058594v0.19922c-0.046875 0.23438-0.1875 0.94531-0.1875 0.94922v4.2812c0.0625 0.003906 0.125 0.015625 0.1875 0.023437v0.015625c0.76953 0.11719 1.5273 0.28125 2.2773 0.49609 3.4102 0.59375 6.5586 2.5117 9.0391 5.3633h-24.277v5.7617h27.805c0.058594 0.14062 0.125 0.27734 0.17969 0.42188 1.2422 2.8594 1.9062 6.0117 1.9062 9.2422 0 3.3867-0.71484 6.5859-1.9883 9.4336-0.03125 0.078125-0.066406 0.15234-0.097656 0.23047h-27.805v5.7617h24.277c-2.4648 2.832-5.5898 4.7422-8.9766 5.3477-0.74219 0.21875-1.5039 0.38672-2.2773 0.50391v0.015625c-0.085938 0.011719-0.16797 0.027344-0.25 0.035157v4.2773s0.23047 1.1328 0.23047 1.1367c0 0 0.60938 0.89844 0.61328 0.90234 0 0 0.90625 0.60938 0.90625 0.61328l1.1289 0.23047h27.656c7.1367 0 13.984-2.8398 19.031-7.8867 4.7383-4.7344 7.5234-11.059 7.8477-17.719h24.914v-5.7656h-24.914c-0.68359-14.223-12.488-25.605-26.879-25.605zm9.2109 5.7617h18.445c11.719 0 21.152 9.4375 21.152 21.156v3.1406c0 5.6133-2.2266 10.992-6.1953 14.957-3.9688 3.9688-9.3438 6.1992-14.957 6.1992h-18.441c6.4375-4.7852 10.598-13.32 10.582-22.777-0.015625-9.418-4.1719-17.91-10.586-22.676z" fill="#fff" fill-rule="evenodd"/>
</svg>
